<svg width="35" height="34" viewBox="0 0 35 34" fill="none" xmlns="http://www.w3.org/2000/svg">
<path d="M17.0602 34C7.65578 34 0 26.3712 0 17C0 7.62875 7.65578 0 17.0602 0C26.4647 0 34.1205 7.62875 34.1205 17C34.1205 26.3712 26.4647 34 17.0602 34ZM31.4477 19.3262C30.9501 19.1703 26.941 17.9761 22.3717 18.7057C24.2767 23.9247 25.0544 28.1747 25.2037 29.0587C28.4735 26.8557 30.7994 23.3637 31.452 19.3262H31.4477ZM22.7541 30.3875C22.5366 29.1125 21.6878 24.6755 19.6406 19.38L19.5468 19.4083C11.3152 22.2629 8.37231 27.9437 8.11641 28.475C10.5759 30.3988 13.6894 31.5435 17.0588 31.5435C19.0776 31.5435 20.9969 31.1327 22.7456 30.3903L22.7541 30.3875ZM6.2341 26.7325C6.56393 26.1658 10.5631 19.5712 18.0796 17.1487C18.2715 17.085 18.4634 17.0297 18.6554 16.9787C18.2857 16.15 17.8877 15.3255 17.4725 14.5137C10.1935 16.6812 3.13624 16.5892 2.49648 16.575L2.4908 17.017C2.4908 20.7471 3.90964 24.1528 6.23552 26.7283L6.2341 26.7325ZM2.79361 14.0462C3.44759 14.0576 9.45137 14.0831 16.2669 12.2782C13.8529 8.00275 11.2484 4.40442 10.8645 3.88025C6.78713 5.79275 3.74188 9.53275 2.79504 14.0378L2.79361 14.0462ZM13.6482 2.907C14.0491 3.44533 16.6977 7.03517 19.0819 11.407C24.2639 9.47325 26.4604 6.53367 26.7206 6.1625C24.1473 3.88167 20.7637 2.499 17.0602 2.499C15.8873 2.499 14.7429 2.64067 13.6482 2.90275V2.907ZM28.3413 7.84125C28.0314 8.25208 25.5904 11.373 20.2036 13.5646C20.5448 14.2587 20.8718 14.96 21.1703 15.6697C21.2841 15.9247 21.3836 16.1797 21.4831 16.4206C26.3311 15.8114 31.1506 16.7889 31.634 16.8881C31.6055 13.4597 30.3829 10.3147 28.3499 7.84975L28.3413 7.84125Z" fill="black"/>
</svg>
