<svg width="842" height="493" viewBox="0 0 842 493" fill="none" xmlns="http://www.w3.org/2000/svg">
<path d="M8.7873 0L16.3973 13.2757H1.17727L8.7873 0Z" transform="translate(119.978 273.721)" fill="#222020"/>
<path d="M5 0L9.33013 7.5H0.669873L5 0Z" transform="translate(265 196)" fill="#222020"/>
<path d="M8.7873 0L16.3973 13.2757H1.17727L8.7873 0Z" transform="translate(93.1111 201.084)" fill="#222020"/>
<path d="M5.21477 0L9.73088 7.90033H0.698646L5.21477 0Z" transform="translate(569.175 38.8296)" fill="#222020"/>
<path d="M11.9195 0L22.242 18.0579H1.59691L11.9195 0Z" transform="translate(574.389 54.6299)" fill="#222020"/>
<path d="M11.9195 0L22.242 18.0579H1.59691L11.9195 0Z" transform="translate(668.76 228.662)" fill="#222020"/>
<path d="M5.95973 0L11.121 9.02894H0.798453L5.95973 0Z" transform="translate(604.188 42.5913)" fill="#222020"/>
<path d="M5.95973 0L11.121 9.02894H0.798453L5.95973 0Z" transform="translate(730.841 203.712)" fill="#222020"/>
<path d="M5.8582 0L10.9315 8.85044H0.78485L5.8582 0Z" transform="translate(205.511 50)" fill="#222020"/>
<path d="M5.8582 0L10.9315 8.85044H0.78485L5.8582 0Z" transform="translate(175 89.7412)" fill="#222020"/>
<ellipse cx="7.32275" cy="7.37537" rx="7.32275" ry="7.37537" transform="translate(137.353 219.426)" fill="#222020"/>
<ellipse cx="3.72483" cy="3.76206" rx="3.72483" ry="3.76206" transform="translate(558 82.4697)" fill="#222020"/>
<ellipse cx="3.66137" cy="3.68769" rx="3.66137" ry="3.68769" transform="translate(195.324 198.026)" fill="#222020"/>
<ellipse cx="3.66137" cy="3.68769" rx="3.66137" ry="3.68769" transform="translate(163.287 143)" fill="#222020"/>
<ellipse cx="3.66137" cy="3.68769" rx="3.66137" ry="3.68769" transform="translate(145 67)" fill="#222020"/>
<ellipse cx="3.72483" cy="3.76206" rx="3.72483" ry="3.76206" transform="translate(596.738 96.0122)" fill="#222020"/>
<ellipse cx="3.66137" cy="3.68769" rx="3.66137" ry="3.68769" transform="translate(238.677 170.22)" fill="#222020"/>
<ellipse cx="3.66137" cy="3.68769" rx="3.66137" ry="3.68769" transform="translate(170.915 220.955)" fill="#222020"/>
<ellipse cx="3.72483" cy="3.76206" rx="3.72483" ry="3.76206" transform="translate(620.577 71.1836)" fill="#222020"/>
<ellipse cx="3.66137" cy="3.68769" rx="3.66137" ry="3.68769" transform="translate(152.608 181.212)" fill="#222020"/>
<ellipse cx="3.72483" cy="3.76206" rx="3.72483" ry="3.76206" transform="translate(628.027 14)" fill="#222020"/>
<ellipse cx="3.66137" cy="3.68769" rx="3.66137" ry="3.68769" transform="translate(187.697 282.095)" fill="#222020"/>
<ellipse cx="3.72483" cy="3.76206" rx="3.72483" ry="3.76206" transform="translate(654.101 118.476)" fill="#222020"/>
<ellipse cx="3.72483" cy="3.76206" rx="3.72483" ry="3.76206" transform="translate(661 185)" fill="#222020"/>
<ellipse cx="3.72483" cy="3.76206" rx="3.72483" ry="3.76206" transform="translate(524 170)" fill="#222020"/>
<mask id="path-26-inside-1" fill="white">
<path fill-rule="evenodd" clip-rule="evenodd" d="M75.9355 151.723C117.874 151.723 151.871 117.758 151.871 75.8613C151.871 33.9644 117.874 0 75.9355 0C33.9975 0 0 33.9644 0 75.8613C0 117.758 33.9975 151.723 75.9355 151.723ZM75.9355 144.06C113.637 144.06 144.201 113.526 144.201 75.8613C144.201 38.1963 113.637 7.66284 75.9355 7.66284C38.2337 7.66284 7.67026 38.1963 7.67026 75.8613C7.67026 113.526 38.2337 144.06 75.9355 144.06Z"/>
</mask>
<path fill-rule="evenodd" clip-rule="evenodd" d="M75.9355 151.723C117.874 151.723 151.871 117.758 151.871 75.8613C151.871 33.9644 117.874 0 75.9355 0C33.9975 0 0 33.9644 0 75.8613C0 117.758 33.9975 151.723 75.9355 151.723ZM75.9355 144.06C113.637 144.06 144.201 113.526 144.201 75.8613C144.201 38.1963 113.637 7.66284 75.9355 7.66284C38.2337 7.66284 7.67026 38.1963 7.67026 75.8613C7.67026 113.526 38.2337 144.06 75.9355 144.06Z" transform="translate(323.294)" fill="#222020"/>
<path d="M149.871 75.8613C149.871 116.652 116.771 149.723 75.9355 149.723V153.723C118.976 153.723 153.871 118.865 153.871 75.8613H149.871ZM75.9355 2C116.771 2 149.871 35.0708 149.871 75.8613H153.871C153.871 32.8579 118.976 -2 75.9355 -2V2ZM2 75.8613C2 35.0708 35.1002 2 75.9355 2V-2C32.8948 -2 -2 32.8579 -2 75.8613H2ZM75.9355 149.723C35.1002 149.723 2 116.652 2 75.8613H-2C-2 118.865 32.8948 153.723 75.9355 153.723V149.723ZM142.201 75.8613C142.201 112.42 112.535 142.06 75.9355 142.06V146.06C114.74 146.06 146.201 114.633 146.201 75.8613H142.201ZM75.9355 9.66284C112.535 9.66284 142.201 39.3027 142.201 75.8613H146.201C146.201 37.0899 114.74 5.66284 75.9355 5.66284V9.66284ZM9.67026 75.8613C9.67026 39.3027 39.3364 9.66284 75.9355 9.66284V5.66284C37.1309 5.66284 5.67026 37.0899 5.67026 75.8613H9.67026ZM75.9355 142.06C39.3364 142.06 9.67026 112.42 9.67026 75.8613H5.67026C5.67026 114.633 37.1309 146.06 75.9355 146.06V142.06Z" transform="translate(323.294)" fill="#222020" mask="url(#path-26-inside-1)"/>
<mask id="path-28-inside-2" fill="white">
<path fill-rule="evenodd" clip-rule="evenodd" d="M179.127 9.45223C200.232 4.31014 214.446 3.58456 216.506 8.50545C220.473 17.9823 177.861 44.8131 121.33 68.4337C64.7977 92.0543 15.7533 103.52 11.7859 94.0433C9.70171 89.0648 20.4719 79.2972 39.3618 67.7218C39.0727 66.8424 38.7992 65.9561 38.5418 65.0628C12.8847 79.8824 -2.29963 92.6756 0.284796 98.849C4.69802 109.39 59.253 96.6363 122.137 70.3617C185.021 44.087 232.42 14.2413 228.007 3.69979C225.445 -2.42033 205.982 -0.688393 177.801 6.98275C178.258 7.79671 178.7 8.61996 179.127 9.45223Z"/>
</mask>
<path fill-rule="evenodd" clip-rule="evenodd" d="M179.127 9.45223C200.232 4.31014 214.446 3.58456 216.506 8.50545C220.473 17.9823 177.861 44.8131 121.33 68.4337C64.7977 92.0543 15.7533 103.52 11.7859 94.0433C9.70171 89.0648 20.4719 79.2972 39.3618 67.7218C39.0727 66.8424 38.7992 65.9561 38.5418 65.0628C12.8847 79.8824 -2.29963 92.6756 0.284796 98.849C4.69802 109.39 59.253 96.6363 122.137 70.3617C185.021 44.087 232.42 14.2413 228.007 3.69979C225.445 -2.42033 205.982 -0.688393 177.801 6.98275C178.258 7.79671 178.7 8.61996 179.127 9.45223Z" transform="translate(287.708 31.8298)" fill="#222020"/>
<path d="M216.506 8.50545L214.661 9.27779L214.661 9.2778L216.506 8.50545ZM179.127 9.45223L177.348 10.3658L178.068 11.7687L179.601 11.3954L179.127 9.45223ZM121.33 68.4337L120.559 66.5883L120.559 66.5883L121.33 68.4337ZM11.7859 94.0433L9.94105 94.8156L9.94106 94.8156L11.7859 94.0433ZM39.3618 67.7218L40.4067 69.4271L41.7559 68.6003L41.2617 67.0971L39.3618 67.7218ZM38.5418 65.0628L40.4635 64.509L39.7555 62.0521L37.5414 63.331L38.5418 65.0628ZM0.284796 98.849L-1.56006 99.6213L-1.56005 99.6213L0.284796 98.849ZM228.007 3.69979L226.162 4.47213L226.162 4.47214L228.007 3.69979ZM177.801 6.98275L177.275 5.05297L174.802 5.72628L176.057 7.96173L177.801 6.98275ZM218.351 7.73312C217.488 5.67224 215.494 4.53834 213.301 3.9276C211.068 3.30569 208.208 3.09885 204.894 3.20627C198.242 3.42187 189.258 4.92532 178.654 7.50908L179.601 11.3954C190.101 8.83706 198.776 7.40667 205.023 7.20417C208.158 7.10255 210.557 7.3156 212.228 7.78095C213.939 8.25749 214.494 8.87822 214.661 9.27779L218.351 7.73312ZM122.101 70.2791C150.436 58.4396 175.328 45.7782 192.671 34.8581C201.328 29.4067 208.187 24.3387 212.655 19.9768C214.882 17.8032 216.606 15.7186 217.64 13.7707C218.661 11.8495 219.182 9.7189 218.351 7.73311L214.661 9.2778C214.822 9.66121 214.879 10.4421 214.108 11.8944C213.351 13.32 211.955 15.0709 209.861 17.1144C205.689 21.1868 199.105 26.0797 190.539 31.4732C173.435 42.2428 148.755 54.8071 120.559 66.5883L122.101 70.2791ZM9.94106 94.8156C10.7722 96.8009 12.6557 97.9257 14.7405 98.5488C16.8546 99.1807 19.5504 99.4185 22.6629 99.3611C28.9091 99.246 37.3367 97.9271 47.3014 95.5975C67.2624 90.9309 93.765 82.1185 122.101 70.2791L120.559 66.5883C92.3624 78.3694 66.0768 87.1002 46.3908 91.7025C36.5319 94.0074 28.4213 95.2543 22.5892 95.3618C19.6626 95.4158 17.4343 95.1791 15.886 94.7163C14.3085 94.2448 13.7915 93.6549 13.6308 93.271L9.94106 94.8156ZM38.3168 66.0165C28.8262 71.8322 21.2773 77.2512 16.3379 81.9C13.8767 84.2163 11.9709 86.4264 10.8163 88.4767C9.68386 90.4876 9.06808 92.7304 9.94105 94.8156L13.6308 93.271C13.4616 92.867 13.4106 92.0218 14.3017 90.4394C15.1706 88.8963 16.7472 87.0076 19.0793 84.8128C23.7263 80.4393 31.0075 75.1868 40.4067 69.4271L38.3168 66.0165ZM41.2617 67.0971C40.9803 66.241 40.7141 65.3784 40.4635 64.509L36.62 65.6167C36.8843 66.5339 37.165 67.4437 37.4618 68.3464L41.2617 67.0971ZM37.5414 63.331C24.6671 70.7672 14.33 77.745 7.5086 83.6905C4.10841 86.6542 1.48683 89.4422 -0.12389 91.9768C-1.68791 94.438 -2.59612 97.1465 -1.56006 99.6213L2.12965 98.0766C1.8735 97.4648 1.89416 96.2591 3.25211 94.1222C4.56337 92.0588 6.85685 89.5647 10.1368 86.7059C16.6757 81.0066 26.7593 74.178 39.5421 66.7947L37.5414 63.331ZM-1.56005 99.6213C-0.673205 101.74 1.34519 102.961 3.63576 103.645C5.95559 104.339 8.92799 104.603 12.3798 104.54C19.3046 104.412 28.6613 102.949 39.7396 100.359C61.928 95.1715 91.3962 85.3735 122.908 72.207L121.366 68.5163C89.9936 81.6244 60.7424 91.3408 38.829 96.4639C27.8565 99.0291 18.8168 100.42 12.3061 100.54C9.04024 100.6 6.53522 100.337 4.78121 99.8129C2.99794 99.2799 2.3461 98.5936 2.12965 98.0766L-1.56005 99.6213ZM122.908 72.207C154.419 59.0406 182.096 44.9619 201.374 32.8232C210.999 26.7626 218.613 21.135 223.567 16.2992C226.036 13.8887 227.935 11.5886 229.071 9.45121C230.192 7.34051 230.739 5.04632 229.852 2.92744L226.162 4.47214C226.378 4.98864 226.41 5.93308 225.538 7.57491C224.68 9.19006 223.109 11.1564 220.773 13.4368C216.115 17.9831 208.776 23.4356 199.243 29.4383C180.203 41.4265 152.738 55.4081 121.366 68.5163L122.908 72.207ZM229.852 2.92745C228.825 0.474095 226.292 -0.780431 223.475 -1.40108C220.576 -2.0397 216.802 -2.14449 212.367 -1.82529C203.471 -1.18491 191.417 1.20351 177.275 5.05297L178.326 8.91253C192.366 5.09085 204.134 2.77773 212.655 2.16439C216.929 1.85673 220.262 1.98703 222.614 2.50523C225.048 3.0414 225.908 3.86543 226.162 4.47213L229.852 2.92745ZM176.057 7.96173C176.501 8.7542 176.932 9.55564 177.348 10.3658L180.906 8.53864C180.468 7.68427 180.014 6.83923 179.545 6.00377L176.057 7.96173Z" transform="translate(287.708 31.8298)" fill="#222020" mask="url(#path-28-inside-2)"/>
<path d="M12.2705 0L22.8971 18.3935H1.64394L12.2705 0Z" transform="matrix(0.917478 -0.397787 0.398442 0.917194 353.426 81.0869)" fill="#222020"/>
<path d="M12.2705 0L22.8971 18.3935H1.64394L12.2705 0Z" transform="matrix(0.917478 -0.397787 0.398442 0.917194 377.057 50.7937)" fill="#222020"/>
<path d="M6.13525 0L11.4485 9.19674H0.821968L6.13525 0Z" transform="matrix(0.917478 -0.397787 0.398442 0.917194 407.565 70.9792)" fill="#222020"/>
<path d="M6.13525 0L11.4485 9.19674H0.821968L6.13525 0Z" transform="matrix(0.917478 -0.397787 0.398442 0.917194 415.345 54.2412)" fill="#222020"/>
<path d="M4.60144 0L8.5864 6.89756H0.616476L4.60144 0Z" transform="matrix(0.917478 -0.397787 0.398442 0.917194 431.674 57.1851)" fill="#222020"/>
<rect width="27.6095" height="2.419" transform="matrix(0.933782 -0.357843 0.358453 0.933548 288.609 71.7854)" fill="#222020"/>
<rect width="40.4936" height="3.06549" transform="matrix(0.933782 -0.357843 0.358453 0.933548 305.127 150.887)" fill="#222020"/>
<rect width="30.6603" height="2.10866" transform="matrix(0.933782 -0.357843 0.358453 0.933548 324.806 155.031)" fill="#222020"/>
<rect width="49.0275" height="2.22859" transform="matrix(0.933782 -0.357843 0.358453 0.933548 266.777 90.5959)" fill="#222020"/>
<rect width="49.0275" height="3.06549" transform="matrix(0.933782 -0.357843 0.358453 0.933548 265 102.075)" fill="#222020"/>
<ellipse cx="23.1037" cy="31.5242" rx="23.1037" ry="31.5242" transform="translate(334.453 338.102)" fill="#222020"/>
<rect width="5.13415" height="34.4567" transform="translate(354.99 390.153)" fill="#222020"/>
<ellipse cx="15.7691" cy="21.3725" rx="15.7691" ry="21.3725" transform="matrix(0.992401 0.12305 -0.123158 0.992387 567.754 378.172)" fill="#222020"/>
<rect width="3.50423" height="23.3607" transform="matrix(0.992401 0.12305 -0.123158 0.992387 577.318 414.918)" fill="#222020"/>
<path d="M22.1365 0L41.3074 33.7157H2.96573L22.1365 0Z" transform="translate(259.737 350.514) rotate(-5.12064)" fill="#222020"/>
<path d="M25.1638 0L46.9562 38.2663H3.37131L25.1638 0Z" transform="translate(257.81 362.926) rotate(-5.12064)" fill="#222020"/>
<path d="M29.7046 0L55.4295 45.1448H3.97966L29.7046 0Z" transform="translate(254.613 378.129) rotate(-5.12064)" fill="#222020"/>
<rect width="5.13413" height="34.4569" transform="translate(283.678 398.422) rotate(-5.12064)" fill="#222020"/>
<path d="M34.161 0L63.7453 51.8492H4.5767L34.161 0Z" transform="matrix(0.984008 -0.178122 0.178277 0.98398 158.692 329.865)" fill="#222020"/>
<path d="M38.8326 0L72.4626 58.8472H5.20258L38.8326 0Z" transform="matrix(0.984008 -0.178122 0.178277 0.98398 157.437 349.144)" fill="#222020"/>
<path d="M45.8399 0L85.5385 69.4252H6.14139L45.8399 0Z" transform="matrix(0.984008 -0.178122 0.178277 0.98398 154.615 372.875)" fill="#222020"/>
<rect width="7.92295" height="52.9889" transform="matrix(0.984008 -0.178122 0.178277 0.98398 202.076 399.922)" fill="#222020"/>
<path d="M33.8878 0L63.2355 51.2823H4.54011L33.8878 0Z" transform="matrix(0.988827 0.149066 -0.149196 0.988808 616.547 310.503)" fill="#222020"/>
<path d="M38.5221 0L71.8832 58.2038H5.16098L38.5221 0Z" transform="matrix(0.988827 0.149066 -0.149196 0.988808 609.198 328.148)" fill="#222020"/>
<path d="M45.4734 0L84.8546 68.6661H6.09228L45.4734 0Z" transform="matrix(0.988827 0.149066 -0.149196 0.988808 598.952 349.458)" fill="#222020"/>
<rect width="7.8596" height="52.4096" transform="matrix(0.988827 0.149066 -0.149196 0.988808 634.857 389.947)" fill="#222020"/>
<path d="M54.9316 0L102.504 83.5809H7.35944L54.9316 0Z" transform="translate(449.522 232.916) rotate(2.79663)" fill="#222020"/>
<path d="M62.4436 0L116.521 94.8618H8.36585L62.4436 0Z" transform="translate(440.545 262.735) rotate(2.79663)" fill="#222020"/>
<path d="M73.7116 0L137.548 111.913H9.87548L73.7116 0Z" transform="translate(427.493 298.973) rotate(2.79663)" fill="#222020"/>
<rect width="12.7403" height="85.4182" transform="translate(491.996 358.719) rotate(2.79663)" fill="#222020"/>
<path d="M30.3354 0L56.6066 46.182H4.06417L30.3354 0Z" transform="translate(384.631 307.776)" fill="#222020"/>
<path d="M34.4838 0L64.3477 52.4151H4.61995L34.4838 0Z" transform="translate(380.482 324.475)" fill="#222020"/>
<path d="M40.7064 0L75.9593 61.8369H5.45363L40.7064 0Z" transform="translate(374.26 344.826)" fill="#222020"/>
<rect width="7.03568" height="47.1971" transform="translate(411.448 376.062)" fill="#222020"/>
<ellipse cx="421" cy="134.161" rx="421" ry="134.161" transform="translate(0 421.677)" fill="#222020"/>
</svg>
