<svg width="35" height="27" viewBox="0 0 35 27" fill="none" xmlns="http://www.w3.org/2000/svg">
<path d="M4.04612 5.50658C4.08877 5.08867 3.92812 4.67642 3.61535 4.39592L0.430771 0.570917V7.0254e-08H10.3214L17.9673 16.7096L24.689 7.0254e-08H34.1205V0.570917L31.3951 3.17333C31.1605 3.35183 31.044 3.64508 31.0923 3.9355V23.0605C31.044 23.3495 31.1605 23.6413 31.3951 23.8213L34.0537 26.4237V26.9946H20.6756V26.4237L23.4294 23.7575C23.6995 23.4883 23.6995 23.409 23.6995 22.9953V7.53808L16.0366 26.9294H15.0031L6.08198 7.53808V20.5346C6.00805 21.0814 6.19002 21.6311 6.5753 22.0263L10.158 26.3613V26.9308H0V26.3599L3.58265 22.0249C3.96651 21.6311 4.13711 21.0758 4.04612 20.5346V5.50658Z" fill="black"/>
</svg>
