<svg width="295" height="256" viewBox="0 0 295 256" fill="none" xmlns="http://www.w3.org/2000/svg">
<path fill-rule="evenodd" clip-rule="evenodd" d="M103.294 48.9947C103.294 49.1475 103.294 49.3002 103.292 49.4526H103.294V174H3.05176e-05V49.4526H0.00219727C0.000732422 49.3002 0 49.1475 0 48.9947C0 21.9357 23.1232 0 51.6472 0C80.1712 0 103.294 21.9357 103.294 48.9947ZM94.7513 53.0667C94.7513 53.2032 94.7507 53.3394 94.7495 53.4756H94.7513V164.679H8.54318V53.4756H8.54501C8.54379 53.3394 8.54318 53.2032 8.54318 53.0667C8.54318 28.9069 27.8415 9.32143 51.6472 9.32143C75.453 9.32143 94.7513 28.9069 94.7513 53.0667Z" transform="translate(24.8528 82)" fill="#222020"/>
<path fill-rule="evenodd" clip-rule="evenodd" d="M14.368 28.7411C22.3033 28.7411 28.7361 22.3072 28.7361 14.3705C28.7361 6.43391 22.3033 0 14.368 0C6.43277 0 0 6.43391 0 14.3705C0 22.3072 6.43277 28.7411 14.368 28.7411ZM14.368 24.0804C19.7296 24.0804 24.0761 19.7331 24.0761 14.3705C24.0761 9.00795 19.7296 4.66071 14.368 4.66071C9.00635 4.66071 4.65988 9.00795 4.65988 14.3705C4.65988 19.7331 9.00635 24.0804 14.368 24.0804Z" transform="translate(79.9949 108.411)" fill="#222020"/>
<path fill-rule="evenodd" clip-rule="evenodd" d="M14.368 28.7411C22.3033 28.7411 28.7361 22.3072 28.7361 14.3705C28.7361 6.43391 22.3033 0 14.368 0C6.43277 0 0 6.43391 0 14.3705C0 22.3072 6.43277 28.7411 14.368 28.7411ZM14.368 24.0804C19.7296 24.0804 24.0761 19.7331 24.0761 14.3705C24.0761 9.00795 19.7296 4.66071 14.368 4.66071C9.00635 4.66071 4.65988 9.00795 4.65988 14.3705C4.65988 19.7331 9.00635 24.0804 14.368 24.0804Z" transform="translate(44.269 108.411)" fill="#222020"/>
<rect width="22.5228" height="6.99107" transform="translate(10.0965 127.83)" fill="#222020"/>
<ellipse cx="7.37817" cy="9.70982" rx="7.37817" ry="9.70982" transform="translate(0 121.616)" fill="#222020"/>
<rect width="22.5228" height="6.99107" transform="translate(142.904 127.053) scale(-1 1)" fill="#222020"/>
<ellipse cx="7.37817" cy="9.70982" rx="7.37817" ry="9.70982" transform="translate(153 120.839) scale(-1 1)" fill="#222020"/>
<ellipse cx="6.2132" cy="6.21429" rx="6.2132" ry="6.21429" transform="translate(69.8985 155.795)" fill="#222020"/>
<rect width="45.0457" height="3.10714" transform="translate(53.5888 199.295)" fill="#222020"/>
<rect width="45.0457" height="3.10714" transform="translate(53.5888 209.393)" fill="#222020"/>
<rect width="45.0457" height="3.10714" transform="translate(53.5888 221.045)" fill="#222020"/>
<path d="M6.15256 0L11.4808 9.33562H0.824286L6.15256 0Z" transform="translate(188.611 76.3909)" fill="#222020"/>
<path d="M6.15256 0L11.4808 9.33562H0.824286L6.15256 0Z" transform="translate(274 7)" fill="#222020"/>
<path d="M6.15256 0L11.4808 9.33562H0.824286L6.15256 0Z" transform="translate(152.294 39.8452)" fill="#222020"/>
<path d="M3.58899 0L6.69715 5.44578H0.480834L3.58899 0Z" transform="translate(236.678 57.0432)" fill="#222020"/>
<path d="M4.1017 0L7.65388 6.22375H0.549524L4.1017 0Z" transform="translate(286 69)" fill="#222020"/>
<path d="M4.1017 0L7.65388 6.22375H0.549524L4.1017 0Z" transform="translate(110 15)" fill="#222020"/>
<ellipse cx="5.12713" cy="5.18646" rx="5.12713" ry="5.18646" transform="translate(237.746 19.4226)" fill="#222020"/>
<ellipse cx="5.12713" cy="5.18646" rx="5.12713" ry="5.18646" transform="translate(260 43)" fill="#222020"/>
<ellipse cx="5.12713" cy="5.18646" rx="5.12713" ry="5.18646" transform="translate(191 46)" fill="#222020"/>
<ellipse cx="2.56357" cy="2.59323" rx="2.56357" ry="2.59323" transform="translate(223.86 37.6954)" fill="#222020"/>
<ellipse cx="2.56357" cy="2.59323" rx="2.56357" ry="2.59323" transform="translate(221)" fill="#222020"/>
<ellipse cx="2.56357" cy="2.59323" rx="2.56357" ry="2.59323" transform="translate(166 2)" fill="#222020"/>
<ellipse cx="2.56357" cy="2.59323" rx="2.56357" ry="2.59323" transform="translate(206.769 53.8186)" fill="#222020"/>
<ellipse cx="2.56357" cy="2.59323" rx="2.56357" ry="2.59323" transform="translate(193.951 25.8718)" fill="#222020"/>
<ellipse cx="2.56357" cy="2.59323" rx="2.56357" ry="2.59323" transform="translate(218.519 96.8135)" fill="#222020"/>
</svg>
