<svg width="417" height="272" viewBox="0 0 417 272" fill="none" xmlns="http://www.w3.org/2000/svg">
<path d="M10.2826 0L19.1876 15.3528H1.37761L10.2826 0Z" transform="translate(64.4982 99.9875)" fill="#222020"/>
<path d="M7.57237 0L14.1302 11.3499H1.01451L7.57237 0Z" transform="translate(145.768 53.9121)" fill="#222020"/>
<ellipse cx="3.80837" cy="3.79082" rx="3.80837" ry="3.79082" transform="translate(41.648 133.347)" fill="#222020"/>
<ellipse cx="3.80837" cy="3.79082" rx="3.80837" ry="3.79082" transform="translate(0 94.5828)" fill="#222020"/>
<ellipse cx="3.80837" cy="3.79082" rx="3.80837" ry="3.79082" transform="translate(113.586 123.904)" fill="#222020"/>
<ellipse cx="3.80837" cy="3.79082" rx="3.80837" ry="3.79082" transform="translate(109.437 87.0989)" fill="#222020"/>
<ellipse cx="3.80837" cy="3.79082" rx="3.80837" ry="3.79082" transform="translate(131.526 79.5171)" fill="#222020"/>
<ellipse cx="2.83964" cy="2.83748" rx="2.83964" ry="2.83748" transform="translate(162.806 77.5579)" fill="#222020"/>
<ellipse cx="2.83964" cy="2.83748" rx="2.83964" ry="2.83748" transform="translate(246.102)" fill="#222020"/>
<ellipse cx="2.83964" cy="2.83748" rx="2.83964" ry="2.83748" transform="translate(202.561 24.5916)" fill="#222020"/>
<ellipse cx="2.83964" cy="2.83748" rx="2.83964" ry="2.83748" transform="translate(145.768 107.824)" fill="#222020"/>
<ellipse cx="2.83964" cy="2.83748" rx="2.83964" ry="2.83748" transform="translate(128.73 51.0747)" fill="#222020"/>
<ellipse cx="2.83964" cy="2.83748" rx="2.83964" ry="2.83748" transform="translate(18.9309 169.303)" fill="#222020"/>
<ellipse cx="2.83964" cy="2.83748" rx="2.83964" ry="2.83748" transform="translate(304.788 30.2666)" fill="#222020"/>
<ellipse cx="4.73273" cy="4.72914" rx="4.73273" ry="4.72914" transform="translate(133.463 22.7)" fill="#222020"/>
<mask id="path-16-inside-1" fill="white">
<path fill-rule="evenodd" clip-rule="evenodd" d="M44.4877 88.9078C69.0575 88.9078 88.9753 69.0052 88.9753 44.4539C88.9753 19.9027 69.0575 0 44.4877 0C19.9178 0 0 19.9027 0 44.4539C0 69.0052 19.9178 88.9078 44.4877 88.9078ZM44.4877 84.4174C66.5757 84.4174 84.4817 66.525 84.4817 44.4539C84.4817 22.3826 66.5757 4.49023 44.4877 4.49023C22.3996 4.49023 4.49371 22.3826 4.49371 44.4539C4.49371 66.525 22.3996 84.4174 44.4877 84.4174Z"/>
</mask>
<path fill-rule="evenodd" clip-rule="evenodd" d="M44.4877 88.9078C69.0575 88.9078 88.9753 69.0052 88.9753 44.4539C88.9753 19.9027 69.0575 0 44.4877 0C19.9178 0 0 19.9027 0 44.4539C0 69.0052 19.9178 88.9078 44.4877 88.9078ZM44.4877 84.4174C66.5757 84.4174 84.4817 66.525 84.4817 44.4539C84.4817 22.3826 66.5757 4.49023 44.4877 4.49023C22.3996 4.49023 4.49371 22.3826 4.49371 44.4539C4.49371 66.525 22.3996 84.4174 44.4877 84.4174Z" transform="translate(163.752 140.928)" fill="#222020"/>
<path d="M86.9753 44.4539C86.9753 67.8992 67.9544 86.9078 44.4877 86.9078V90.9078C70.1607 90.9078 90.9753 70.1113 90.9753 44.4539H86.9753ZM44.4877 2C67.9544 2 86.9753 21.0087 86.9753 44.4539H90.9753C90.9753 18.7967 70.1607 -2 44.4877 -2V2ZM2 44.4539C2 21.0087 21.0209 2 44.4877 2V-2C18.8147 -2 -2 18.7967 -2 44.4539H2ZM44.4877 86.9078C21.0209 86.9078 2 67.8992 2 44.4539H-2C-2 70.1113 18.8147 90.9078 44.4877 90.9078V86.9078ZM82.4817 44.4539C82.4817 65.419 65.4726 82.4174 44.4877 82.4174V86.4174C67.6789 86.4174 86.4817 67.631 86.4817 44.4539H82.4817ZM44.4877 6.49023C65.4726 6.49023 82.4817 23.4886 82.4817 44.4539H86.4817C86.4817 21.2766 67.6789 2.49023 44.4877 2.49023V6.49023ZM6.49371 44.4539C6.49371 23.4886 23.5028 6.49023 44.4877 6.49023V2.49023C21.2965 2.49023 2.49371 21.2766 2.49371 44.4539H6.49371ZM44.4877 82.4174C23.5028 82.4174 6.49371 65.419 6.49371 44.4539H2.49371C2.49371 67.631 21.2965 86.4174 44.4877 86.4174V82.4174Z" transform="translate(163.752 140.928)" fill="#222020" mask="url(#path-16-inside-1)"/>
<mask id="path-18-inside-2" fill="white">
<path fill-rule="evenodd" clip-rule="evenodd" d="M42.5946 85.1245C66.1189 85.1245 85.1892 66.0687 85.1892 42.5623C85.1892 19.0558 66.1189 0 42.5946 0C19.0702 0 0 19.0558 0 42.5623C0 66.0687 19.0702 85.1245 42.5946 85.1245ZM42.5946 80.8253C63.7427 80.8253 80.8867 63.6943 80.8867 42.5623C80.8867 21.4302 63.7427 4.29919 42.5946 4.29919C21.4465 4.29919 4.3025 21.4302 4.3025 42.5623C4.3025 63.6943 21.4465 80.8253 42.5946 80.8253Z"/>
</mask>
<path fill-rule="evenodd" clip-rule="evenodd" d="M42.5946 85.1245C66.1189 85.1245 85.1892 66.0687 85.1892 42.5623C85.1892 19.0558 66.1189 0 42.5946 0C19.0702 0 0 19.0558 0 42.5623C0 66.0687 19.0702 85.1245 42.5946 85.1245ZM42.5946 80.8253C63.7427 80.8253 80.8867 63.6943 80.8867 42.5623C80.8867 21.4302 63.7427 4.29919 42.5946 4.29919C21.4465 4.29919 4.3025 21.4302 4.3025 42.5623C4.3025 63.6943 21.4465 80.8253 42.5946 80.8253Z" transform="translate(325.612 71.8829)" fill="#222020"/>
<path d="M83.1892 42.5623C83.1892 64.9627 65.0158 83.1245 42.5946 83.1245V87.1245C67.2221 87.1245 87.1892 67.1747 87.1892 42.5623H83.1892ZM42.5946 2C65.0158 2 83.1892 20.1618 83.1892 42.5623H87.1892C87.1892 17.9498 67.2221 -2 42.5946 -2V2ZM2 42.5623C2 20.1618 20.1734 2 42.5946 2V-2C17.9671 -2 -2 17.9498 -2 42.5623H2ZM42.5946 83.1245C20.1734 83.1245 2 64.9627 2 42.5623H-2C-2 67.1747 17.9671 87.1245 42.5946 87.1245V83.1245ZM78.8867 42.5623C78.8867 62.5883 62.6396 78.8253 42.5946 78.8253V82.8253C64.8459 82.8253 82.8867 64.8003 82.8867 42.5623H78.8867ZM42.5946 6.29919C62.6396 6.29919 78.8867 22.5362 78.8867 42.5623H82.8867C82.8867 20.3242 64.8459 2.29919 42.5946 2.29919V6.29919ZM6.3025 42.5623C6.3025 22.5362 22.5496 6.29919 42.5946 6.29919V2.29919C20.3433 2.29919 2.3025 20.3242 2.3025 42.5623H6.3025ZM42.5946 78.8253C22.5496 78.8253 6.3025 62.5883 6.3025 42.5623H2.3025C2.3025 64.8003 20.3433 82.8253 42.5946 82.8253V78.8253Z" transform="translate(325.612 71.8829)" fill="#222020" mask="url(#path-18-inside-2)"/>
<mask id="path-20-inside-3" fill="white">
<path fill-rule="evenodd" clip-rule="evenodd" d="M31.236 62.4247C48.4872 62.4247 62.472 48.4504 62.472 31.2123C62.472 13.9742 48.4872 0 31.236 0C13.9848 0 0 13.9742 0 31.2123C0 48.4504 13.9848 62.4247 31.236 62.4247ZM31.236 59.272C46.7447 59.272 59.3169 46.7092 59.3169 31.2124C59.3169 15.7156 46.7447 3.15283 31.236 3.15283C15.7274 3.15283 3.15516 15.7156 3.15516 31.2124C3.15516 46.7092 15.7274 59.272 31.236 59.272Z"/>
</mask>
<path fill-rule="evenodd" clip-rule="evenodd" d="M31.236 62.4247C48.4872 62.4247 62.472 48.4504 62.472 31.2123C62.472 13.9742 48.4872 0 31.236 0C13.9848 0 0 13.9742 0 31.2123C0 48.4504 13.9848 62.4247 31.236 62.4247ZM31.236 59.272C46.7447 59.272 59.3169 46.7092 59.3169 31.2124C59.3169 15.7156 46.7447 3.15283 31.236 3.15283C15.7274 3.15283 3.15516 15.7156 3.15516 31.2124C3.15516 46.7092 15.7274 59.272 31.236 59.272Z" transform="translate(206.347 52.0205)" fill="#222020"/>
<path d="M60.472 31.2123C60.472 47.3444 47.3841 60.4247 31.236 60.4247V64.4247C49.5903 64.4247 64.472 49.5564 64.472 31.2123H60.472ZM31.236 2C47.3841 2 60.472 15.0802 60.472 31.2123H64.472C64.472 12.8682 49.5903 -2 31.236 -2V2ZM2 31.2123C2 15.0802 15.088 2 31.236 2V-2C12.8817 -2 -2 12.8682 -2 31.2123H2ZM31.236 60.4247C15.088 60.4247 2 47.3444 2 31.2123H-2C-2 49.5564 12.8817 64.4247 31.236 64.4247V60.4247ZM57.3169 31.2124C57.3169 45.6032 45.6415 57.272 31.236 57.272V61.272C47.8478 61.272 61.3169 47.8152 61.3169 31.2124H57.3169ZM31.236 5.15283C45.6415 5.15283 57.3169 16.8216 57.3169 31.2124H61.3169C61.3169 14.6096 47.8478 1.15283 31.236 1.15283V5.15283ZM5.15516 31.2124C5.15516 16.8216 16.8305 5.15283 31.236 5.15283V1.15283C14.6243 1.15283 1.15516 14.6096 1.15516 31.2124H5.15516ZM31.236 57.272C16.8305 57.272 5.15516 45.6032 5.15516 31.2124H1.15516C1.15516 47.8152 14.6243 61.272 31.236 61.272V57.272Z" transform="translate(206.347 52.0205)" fill="#222020" mask="url(#path-20-inside-3)"/>
<ellipse cx="7.09908" cy="7.09372" rx="7.09908" ry="7.09372" transform="translate(248.185 79.6375) rotate(-2.8932)" fill="#222020"/>
<ellipse cx="7.0991" cy="7.09371" rx="7.0991" ry="7.09371" transform="translate(221.492 87.0161)" fill="#222020"/>
<ellipse cx="9.46546" cy="9.45828" rx="9.46546" ry="9.45828" transform="translate(346.163 108.77)" fill="#222020"/>
<ellipse cx="4.73273" cy="4.72914" rx="4.73273" ry="4.72914" transform="translate(194.042 201.461)" fill="#222020"/>
<rect width="117.985" height="8.87828" transform="matrix(0.914867 -0.403754 0.404268 0.914641 244.468 162.974)" fill="#222020"/>
<rect width="74.3768" height="5.65038" transform="matrix(0.973601 0.228258 -0.228586 0.973524 258.732 85.1111)" fill="#222020"/>
<rect width="48.8928" height="5.65415" transform="matrix(-0.263414 0.964683 -0.964784 -0.263042 230.401 98.832)" fill="#222020"/>
<path fill-rule="evenodd" clip-rule="evenodd" d="M13.6 27.1841C21.1111 27.1841 27.2 21.0986 27.2 13.592C27.2 6.08533 21.1111 0 13.6 0C6.08893 0 0 6.08533 0 13.592C0 21.0986 6.08893 27.1841 13.6 27.1841ZM13.6 22.7759C18.675 22.7759 22.7892 18.6641 22.7892 13.592C22.7892 8.5199 18.675 4.4082 13.6 4.4082C8.52493 4.4082 4.4108 8.5199 4.4108 13.592C4.4108 18.6641 8.52493 22.7759 13.6 22.7759Z" transform="translate(185.523 185.382)" fill="#222020"/>
<path fill-rule="evenodd" clip-rule="evenodd" d="M6.15256 17.9707C9.55051 17.9707 12.3051 13.9479 12.3051 8.98535C12.3051 4.02283 9.55051 0 6.15256 0C2.75459 0 0 4.02283 0 8.98535C0 13.9479 2.75459 17.9707 6.15256 17.9707ZM6.15254 15.0565C8.44846 15.0565 10.3097 12.3384 10.3097 8.98535C10.3097 5.63232 8.44846 2.91418 6.15254 2.91418C3.85661 2.91418 1.99541 5.63232 1.99541 8.98535C1.99541 12.3384 3.85661 15.0565 6.15254 15.0565Z" transform="translate(389.977 104.041)" fill="#222020"/>
<rect width="2.7953" height="43.3034" transform="matrix(0.927984 -0.372619 0.373106 0.927789 230.011 231.824)" fill="#222020"/>
<rect width="2.7953" height="24.8836" transform="matrix(0.927984 -0.372619 0.373106 0.927789 242.316 224.257)" fill="#222020"/>
<rect width="2.7953" height="34.727" transform="matrix(0.927984 -0.372619 0.373106 0.927789 215.813 235.607)" fill="#222020"/>
<rect width="2.7953" height="37.8845" transform="matrix(0.927984 -0.372619 0.373106 0.927789 391.87 158.049)" fill="#222020"/>
<rect width="2.7953" height="24.8836" transform="matrix(0.927984 -0.372619 0.373106 0.927789 405.122 146.699)" fill="#222020"/>
<rect width="2.7953" height="24.0261" transform="matrix(0.927984 -0.372619 0.373106 0.927789 381.458 161.832)" fill="#222020"/>
</svg>
