<svg width="187" height="199" viewBox="0 0 187 199" fill="none" xmlns="http://www.w3.org/2000/svg">
<path fill-rule="evenodd" clip-rule="evenodd" d="M45.5095 147.906V47.1349C45.5095 44.1599 44.6434 39.9203 43.004 34.9996C41.3915 30.1592 39.1402 24.982 36.6289 20.2386C34.1047 15.4706 31.4058 11.3077 28.9527 8.41418C27.7205 6.96081 26.6644 5.96411 25.8379 5.36924C25.5504 5.16228 25.3367 5.0369 25.1928 4.96219C25.0488 5.0369 24.8352 5.16228 24.5477 5.36924C23.7212 5.96411 22.6651 6.96081 21.4329 8.41418C18.9798 11.3077 16.2809 15.4706 13.7566 20.2386C11.2454 24.982 8.99407 30.1592 7.38152 34.9996C5.74222 39.9203 4.87602 44.1599 4.87602 47.1349V147.906H45.5095ZM50.3856 47.1349C50.3856 32.174 33.5904 0 25.1928 0C16.7952 0 0 32.174 0 47.1349V152.782H50.3856V47.1349Z" transform="translate(143.441 5.19116) rotate(41.5313)" fill="#222020"/>
<path fill-rule="evenodd" clip-rule="evenodd" d="M6.72965 0L0 11.3775L27.0889 11.3774L20.3593 3.21266e-05L6.72965 0Z" transform="translate(37.6342 114.846) rotate(41.5313)" fill="#222020"/>
<path fill-rule="evenodd" clip-rule="evenodd" d="M6.7298 4.3221e-05L0 11.3777L27.0889 11.3776L20.3591 0L6.7298 4.3221e-05Z" transform="translate(64.8078 138.914) rotate(41.5313)" fill="#222020"/>
<path fill-rule="evenodd" clip-rule="evenodd" d="M10.0228 20.0458C15.5585 20.0459 20.0458 15.5585 20.0459 10.023C20.0458 4.48733 15.5584 -3.25955e-05 10.0229 1.77578e-10C4.48741 3.25959e-05 3.45527e-05 4.48751 1.67919e-10 10.023C-3.16967e-05 15.5585 4.48734 20.0458 10.0228 20.0458ZM10.0229 16.7952C13.763 16.7951 16.795 13.763 16.7951 10.0228C16.7951 6.28269 13.763 3.25051 10.0228 3.25061C6.28255 3.25053 3.25057 6.28264 3.25051 10.0228C3.2506 13.7631 6.2826 16.7951 10.0229 16.7952Z" transform="translate(136.836 35.5278) rotate(41.5313)" fill="#222020"/>
<rect width="2.16712" height="48.7602" transform="translate(143.441 81.1833) rotate(131.531)" fill="#222020"/>
<rect width="2.16712" height="33.5904" transform="translate(32.0838 130.919) rotate(41.5313)" fill="#222020"/>
<rect width="2.16712" height="33.5904" transform="translate(34.3898 137.303) rotate(41.5313)" fill="#222020"/>
<rect width="2.16712" height="23.2966" transform="translate(41.0064 138.822) rotate(41.5313)" fill="#222020"/>
<rect width="2.16712" height="29.7979" transform="translate(59.2572 154.986) rotate(41.5313)" fill="#222020"/>
<rect width="2.16712" height="33.5904" transform="translate(59.4079 163.804) rotate(41.5313)" fill="#222020"/>
<rect width="2.16712" height="27.089" transform="translate(68.1798 162.889) rotate(41.5313)" fill="#222020"/>
<circle cx="8.66849" cy="8.66849" r="8.66849" transform="translate(109.628 67.8809) rotate(41.5313)" fill="#222020"/>
<circle cx="5.4178" cy="5.4178" r="5.4178" transform="translate(87.9943 97.2095) rotate(41.5313)" fill="#222020"/>
</svg>
