<svg width="35" height="34" viewBox="0 0 35 34" fill="none" xmlns="http://www.w3.org/2000/svg">
<path d="M17.0602 -1.28349e-08C7.63446 -1.28349e-08 0 7.61175 0 17C0 24.5126 4.88776 30.8833 11.6649 33.1287C12.518 33.2888 12.8307 32.7632 12.8307 32.3113C12.8307 31.9076 12.8165 30.838 12.8094 29.4213C8.06381 30.447 7.06294 27.1405 7.06294 27.1405C6.2867 25.1784 5.16499 24.6542 5.16499 24.6542C3.61961 23.6002 5.28441 23.6215 5.28441 23.6215C6.99754 23.7405 7.89747 25.3725 7.89747 25.3725C9.41867 27.9721 11.891 27.2212 12.8663 26.7863C13.0198 25.687 13.4591 24.9376 13.9467 24.5126C10.158 24.0876 6.17581 22.6256 6.17581 16.1117C6.17581 14.2559 6.83689 12.7401 7.93159 11.5501C7.73966 11.1208 7.16388 9.3925 8.08087 7.05075C8.08087 7.05075 9.50966 6.59458 12.7724 8.79325C14.1373 8.415 15.5874 8.228 17.0375 8.2195C18.4876 8.228 19.9377 8.415 21.3026 8.79325C24.544 6.59458 25.9728 7.05075 25.9728 7.05075C26.8898 9.3925 26.314 11.1208 26.1434 11.5501C27.231 12.7401 27.8921 14.2559 27.8921 16.1117C27.8921 22.6426 23.9042 24.0805 20.1083 24.4984C20.7054 25.0084 21.2599 26.0511 21.2599 27.6434C21.2599 29.9186 21.2386 31.7461 21.2386 32.2986C21.2386 32.7448 21.5371 33.2761 22.4115 33.1061C29.237 30.8762 34.1205 24.5012 34.1205 17C34.1205 7.61175 26.4818 -1.28349e-08 17.0602 -1.28349e-08" fill="black"/>
</svg>
