<svg width="251" height="157" viewBox="0 0 251 157" fill="none" xmlns="http://www.w3.org/2000/svg">
<mask id="path-1-inside-1" fill="white">
<path fill-rule="evenodd" clip-rule="evenodd" d="M75.9355 151.723C117.874 151.723 151.871 117.758 151.871 75.8614C151.871 33.9643 117.874 0 75.9355 0C33.9975 0 0 33.9643 0 75.8614C0 117.758 33.9975 151.723 75.9355 151.723ZM75.9355 144.06C113.637 144.06 144.201 113.526 144.201 75.8613C144.201 38.1963 113.637 7.66276 75.9355 7.66276C38.2337 7.66276 7.67027 38.1963 7.67027 75.8613C7.67027 113.526 38.2337 144.06 75.9355 144.06Z"/>
</mask>
<path fill-rule="evenodd" clip-rule="evenodd" d="M75.9355 151.723C117.874 151.723 151.871 117.758 151.871 75.8614C151.871 33.9643 117.874 0 75.9355 0C33.9975 0 0 33.9643 0 75.8614C0 117.758 33.9975 151.723 75.9355 151.723ZM75.9355 144.06C113.637 144.06 144.201 113.526 144.201 75.8613C144.201 38.1963 113.637 7.66276 75.9355 7.66276C38.2337 7.66276 7.67027 38.1963 7.67027 75.8613C7.67027 113.526 38.2337 144.06 75.9355 144.06Z" transform="translate(58.2939)" fill="#222020"/>
<path d="M149.871 75.8614C149.871 116.652 116.771 149.723 75.9355 149.723V153.723C118.976 153.723 153.871 118.865 153.871 75.8614H149.871ZM75.9355 2C116.771 2 149.871 35.0707 149.871 75.8614H153.871C153.871 32.8579 118.976 -2 75.9355 -2V2ZM2 75.8614C2 35.0707 35.1002 2 75.9355 2V-2C32.8948 -2 -2 32.8579 -2 75.8614H2ZM75.9355 149.723C35.1002 149.723 2 116.652 2 75.8614H-2C-2 118.865 32.8948 153.723 75.9355 153.723V149.723ZM142.201 75.8613C142.201 112.42 112.535 142.06 75.9355 142.06V146.06C114.74 146.06 146.201 114.633 146.201 75.8613H142.201ZM75.9355 9.66276C112.535 9.66276 142.201 39.3027 142.201 75.8613H146.201C146.201 37.0899 114.74 5.66276 75.9355 5.66276V9.66276ZM9.67027 75.8613C9.67027 39.3027 39.3364 9.66276 75.9355 9.66276V5.66276C37.1309 5.66276 5.67027 37.0899 5.67027 75.8613H9.67027ZM75.9355 142.06C39.3364 142.06 9.67027 112.42 9.67027 75.8613H5.67027C5.67027 114.633 37.1309 146.06 75.9355 146.06V142.06Z" transform="translate(58.2939)" fill="#222020" mask="url(#path-1-inside-1)"/>
<mask id="path-3-inside-2" fill="white">
<path fill-rule="evenodd" clip-rule="evenodd" d="M179.127 9.4522C200.232 4.3102 214.446 3.58446 216.506 8.50529C220.473 17.9821 177.861 44.8129 121.33 68.4336C64.7977 92.0543 15.7533 103.52 11.7859 94.0433C9.70169 89.0649 20.4719 79.2974 39.3617 67.7219C39.0726 66.8425 38.7992 65.956 38.5417 65.0627C12.8846 79.8822 -2.29963 92.6756 0.284796 98.8489C4.69801 109.39 59.253 96.6363 122.137 70.3616C185.021 44.0869 232.42 14.2414 228.007 3.6998C225.445 -2.42032 205.982 -0.688398 177.801 6.98268C178.258 7.7967 178.7 8.61999 179.127 9.4522Z"/>
</mask>
<path fill-rule="evenodd" clip-rule="evenodd" d="M179.127 9.4522C200.232 4.3102 214.446 3.58446 216.506 8.50529C220.473 17.9821 177.861 44.8129 121.33 68.4336C64.7977 92.0543 15.7533 103.52 11.7859 94.0433C9.70169 89.0649 20.4719 79.2974 39.3617 67.7219C39.0726 66.8425 38.7992 65.956 38.5417 65.0627C12.8846 79.8822 -2.29963 92.6756 0.284796 98.8489C4.69801 109.39 59.253 96.6363 122.137 70.3616C185.021 44.0869 232.42 14.2414 228.007 3.6998C225.445 -2.42032 205.982 -0.688398 177.801 6.98268C178.258 7.7967 178.7 8.61999 179.127 9.4522Z" transform="translate(22.7081 31.8297)" fill="#222020"/>
<path d="M216.506 8.50529L214.661 9.27763L216.506 8.50529ZM179.127 9.4522L177.348 10.3658L178.068 11.7687L179.601 11.3954L179.127 9.4522ZM121.33 68.4336L120.559 66.5882L121.33 68.4336ZM11.7859 94.0433L9.94103 94.8157H9.94103L11.7859 94.0433ZM39.3617 67.7219L40.4067 69.4272L41.7559 68.6004L41.2617 67.0973L39.3617 67.7219ZM38.5417 65.0627L40.4635 64.5088L39.7554 62.0521L37.5414 63.3309L38.5417 65.0627ZM0.284796 98.8489L2.12965 98.0765H2.12965L0.284796 98.8489ZM122.137 70.3616L122.908 72.207L122.137 70.3616ZM228.007 3.6998L226.162 4.47214V4.47214L228.007 3.6998ZM177.801 6.98268L177.275 5.0529L174.802 5.72618L176.057 7.96158L177.801 6.98268ZM218.351 7.73295C217.488 5.67207 215.494 4.5382 213.301 3.92749C211.068 3.3056 208.208 3.09879 204.894 3.20623C198.242 3.42187 189.258 4.92533 178.654 7.50905L179.601 11.3954C190.101 8.83707 198.776 7.40666 205.023 7.20413C208.158 7.1025 210.557 7.31553 212.228 7.78086C213.939 8.25737 214.494 8.87809 214.661 9.27763L218.351 7.73295ZM122.101 70.279C150.436 58.4395 175.328 45.7781 192.671 34.8579C201.328 29.4066 208.187 24.3385 212.655 19.9767C214.882 17.8031 216.606 15.7184 217.64 13.7705C218.661 11.8494 219.182 9.71873 218.351 7.73295L214.661 9.27763C214.822 9.66105 214.879 10.4419 214.108 11.8943C213.351 13.3199 211.955 15.0707 209.861 17.1143C205.689 21.1867 199.105 26.0795 190.539 31.4731C173.435 42.2427 148.755 54.807 120.559 66.5882L122.101 70.279ZM9.94103 94.8157C10.7722 96.8009 12.6557 97.9257 14.7405 98.5489C16.8546 99.1807 19.5504 99.4185 22.6629 99.3612C28.9091 99.246 37.3367 97.9271 47.3014 95.5975C67.2624 90.9309 93.7649 82.1185 122.101 70.279L120.559 66.5882C92.3623 78.3694 66.0768 87.1002 46.3908 91.7025C36.5319 94.0074 28.4213 95.2543 22.5892 95.3618C19.6626 95.4158 17.4342 95.1791 15.886 94.7164C14.3085 94.2449 13.7915 93.6549 13.6307 93.271L9.94103 94.8157ZM38.3168 66.0166C28.8262 71.8323 21.2773 77.2513 16.3378 81.9001C13.8767 84.2164 11.9708 86.4265 10.8163 88.4768C9.68384 90.4877 9.06805 92.7304 9.94103 94.8157L13.6307 93.271C13.4616 92.867 13.4105 92.0219 14.3016 90.4395C15.1706 88.8964 16.7472 87.0077 19.0792 84.8129C23.7263 80.4394 31.0075 75.1869 40.4067 69.4272L38.3168 66.0166ZM41.2617 67.0973C40.9803 66.2412 40.7141 65.3783 40.4635 64.5088L36.62 65.6166C36.8843 66.5336 37.165 67.4437 37.4618 68.3465L41.2617 67.0973ZM37.5414 63.3309C24.6671 70.767 14.33 77.7449 7.50859 83.6904C4.1084 86.6541 1.48682 89.4421 -0.123894 91.9767C-1.6879 94.4379 -2.59612 97.1464 -1.56006 99.6212L2.12965 98.0765C1.8735 97.4647 1.89416 96.259 3.25211 94.1221C4.56337 92.0587 6.85685 89.5646 10.1368 86.7058C16.6757 81.0065 26.7593 74.1779 39.5421 66.7946L37.5414 63.3309ZM-1.56006 99.6212C-0.673215 101.74 1.34517 102.961 3.63575 103.645C5.95557 104.339 8.92798 104.603 12.3798 104.54C19.3045 104.412 28.6613 102.949 39.7396 100.359C61.928 95.1715 91.3962 85.3735 122.908 72.207L121.366 68.5163C89.9936 81.6245 60.7424 91.3409 38.829 96.4639C27.8565 99.0291 18.8168 100.42 12.3061 100.54C9.04024 100.6 6.53522 100.337 4.78122 99.8128C2.99796 99.2799 2.34611 98.5936 2.12965 98.0765L-1.56006 99.6212ZM122.908 72.207C154.419 59.0405 182.096 44.9619 201.374 32.8233C210.999 26.7626 218.613 21.135 223.567 16.2993C226.036 13.8888 227.935 11.5886 229.071 9.45125C230.192 7.34054 230.739 5.04634 229.852 2.92746L226.162 4.47214C226.378 4.98866 226.41 5.93312 225.538 7.57496C224.68 9.19011 223.109 11.1564 220.773 13.4369C216.115 17.9831 208.776 23.4356 199.243 29.4384C180.203 41.4265 152.738 55.408 121.366 68.5163L122.908 72.207ZM229.852 2.92746C228.825 0.474106 226.292 -0.780421 223.475 -1.40108C220.576 -2.0397 216.802 -2.14449 212.367 -1.8253C203.471 -1.18493 191.417 1.20347 177.275 5.0529L178.326 8.91247C192.366 5.09081 204.134 2.77771 212.655 2.16438C216.929 1.85673 220.262 1.98703 222.614 2.50524C225.048 3.04141 225.908 3.86544 226.162 4.47214L229.852 2.92746ZM176.057 7.96158C176.501 8.75411 176.932 9.55563 177.348 10.3658L180.906 8.5386C180.468 7.68435 180.014 6.83929 179.545 6.00379L176.057 7.96158Z" transform="translate(22.7081 31.8297)" fill="#222020" mask="url(#path-3-inside-2)"/>
<path d="M12.2705 0L22.8971 18.3935H1.64394L12.2705 0Z" transform="matrix(0.917478 -0.397787 0.398442 0.917194 88.4264 81.0869)" fill="#222020"/>
<path d="M12.2705 0L22.8971 18.3935H1.64394L12.2705 0Z" transform="matrix(0.917478 -0.397787 0.398442 0.917194 112.057 50.7936)" fill="#222020"/>
<path d="M6.13525 0L11.4485 9.19674H0.821968L6.13525 0Z" transform="matrix(0.917478 -0.397787 0.398442 0.917194 142.565 70.9792)" fill="#222020"/>
<path d="M6.13525 0L11.4485 9.19674H0.821968L6.13525 0Z" transform="matrix(0.917478 -0.397787 0.398442 0.917194 150.345 54.2411)" fill="#222020"/>
<path d="M4.60144 0L8.5864 6.89756H0.616476L4.60144 0Z" transform="matrix(0.917478 -0.397787 0.398442 0.917194 166.674 57.1852)" fill="#222020"/>
<rect width="27.6095" height="2.419" transform="matrix(0.933782 -0.357843 0.358453 0.933548 23.609 71.7855)" fill="#222020"/>
<rect width="40.4936" height="3.06549" transform="matrix(0.933782 -0.357843 0.358453 0.933548 40.1267 150.888)" fill="#222020"/>
<rect width="30.6603" height="2.10866" transform="matrix(0.933782 -0.357843 0.358453 0.933548 59.8059 155.031)" fill="#222020"/>
<rect width="49.0275" height="2.22859" transform="matrix(0.933782 -0.357843 0.358453 0.933548 1.77693 90.596)" fill="#222020"/>
<rect width="49.0275" height="3.06549" transform="matrix(0.933782 -0.357843 0.358453 0.933548 0 102.075)" fill="#222020"/>
</svg>
